# xmcd
#
# Track frame offsets:
#	150
#	39902
#	58372
#	84037
#	112945
#	131880
#	152185
#	168975
#	188642
#	215240
#	249407
#	269320
#	298522
#	321717
#
# Disc length: 4616 seconds
#
# Revision: 2
# Processed by: cddbd v1.5.2PL0 Copyright (c) Steve Scherf et al.
# Submitted via: EZCDAudioConverter 8.0.2.1
#
DISCID=ce12060e
DTITLE=Various Artist - Cho Thành Phố Mất Tên
DYEAR=2003
DGENRE=Miscellaneous
TTITLE0=Khánh Ly - Đêm chôn dấu vượt biển
TTITLE1=Tuấn Anh - Sài Gòn ơi vĩnh biệt
TTITLE2=Giao Linh - Bài hương ca vô tận
TTITLE3=Elvis Phương - Khi xa Sài Gòn
TTITLE4=Hương Lan - Con quốc Việt Nam
TTITLE5=Khánh Ly - Sài Gòn niềm nhớ không tên
TTITLE6=Giao Linh - Lời người ra đi
TTITLE7=Ngọc Minh - Anh giải phóng tôi
TTITLE8=Khánh Ly, Châu Đình An - Chăn vịt ở phương Nam
TTITLE9=Giao Linh - Bà mẹ phù sa
TTITLE10=Anh Quy - Khóc một giòng sông
TTITLE11=Khánh Ly - Cho thành phố mất tên
TTITLE12=Băng Châu - Quê hương ngày em lớn
TTITLE13=Elvis Phương,  Khánh Ly - Người di tản buồn
EXTD=
EXTT0=
EXTT1=
EXTT2=
EXTT3=
EXTT4=
EXTT5=
EXTT6=
EXTT7=
EXTT8=
EXTT9=
EXTT10=
EXTT11=
EXTT12=
EXTT13=
PLAYORDER=
